# xmcd
#
# Track frame offsets:
#	150
#	27287
#	59284
#	74262
#	105364
#	129957
#	165737
#	207864
#	216154
#
# Disc length: 3025 seconds
#
# Revision: 5
# Processed by: cddbd v1.5.2PL0 Copyright (c) Steve Scherf et al.
# Submitted via: EZCDAudioConverter 2.1.7.1
#
DISCID=780bcf09
DTITLE=Machiavel - Jester
DYEAR=1977
DGENRE=
TTITLE0=Wisdom
TTITLE1=Sparkling Jaw
TTITLE2=Moments
TTITLE3=In The Reign Of Great Pollution
TTITLE4=The Jester
TTITLE5=Mr. Street Fair
TTITLE6=Rock, Sea And Tree
TTITLE7=The Birds Are Gone
TTITLE8=I'm Nowhere
EXTD=
EXTT0=
EXTT1=
EXTT2=
EXTT3=
EXTT4=
EXTT5=
EXTT6=
EXTT7=
EXTT8=
PLAYORDER=
